<svg id="Layer_1" data-name="Layer 1" xmlns="http://www.w3.org/2000/svg" viewBox="0 0 87.82 73.25"><defs><style>.cls-1{fill:#ffffff;}</style></defs><path class="cls-1" d="M116.14,48.88a2.57,2.57,0,0,0,0-4.85L74.8,29.44a2.64,2.64,0,0,0-1.71,0L31.75,44a2.57,2.57,0,0,0,0,4.85L48.12,54.7V71.48c0,2.77,2.89,5.11,8.59,7A57.63,57.63,0,0,0,74,80.94a57.61,57.61,0,0,0,17.23-2.5c5.7-1.85,8.59-4.19,8.59-7V54.7l6.76-2.41V75.55a7.74,7.74,0,0,0,0,14.6V100a2.58,2.58,0,0,0,5.15,0V90.15a7.74,7.74,0,0,0,0-14.6V50.47Zm-7,36.56a2.6,2.6,0,1,1,2.6-2.59A2.59,2.59,0,0,1,109.1,85.44ZM74,34.6l33.63,11.86L74,58.42l-33.63-12ZM94.62,71.09c-.49.5-2.25,1.69-6.24,2.83a56.36,56.36,0,0,1-28.87,0c-4-1.14-5.75-2.33-6.24-2.83V56.53l19.81,7a2.57,2.57,0,0,0,1.73,0l19.81-7V71.09Z" transform="translate(-30.04 -29.3)"/></svg>