
<svg xmlns="http://www.w3.org/2000/svg" xmlns:xlink="http://www.w3.org/1999/xlink" version="1.1" id="Layer_1" x="0px" y="0px" style="enable-background:new 0 0 112 104;" xml:space="preserve" viewBox="33.98 30.27 42.12 42.12"><style type="text/css">	.st0{fill:#71B98F;}	.st1{fill:#FFFFFF;}</style><circle class="st0" cx="55.04" cy="51.33" r="21.06"></circle><path class="st1" d="M67.39,49.19c0.3-0.11,0.5-0.39,0.5-0.71c0-0.32-0.2-0.6-0.5-0.71l-12.1-4.27c-0.16-0.06-0.34-0.06-0.5,0  l-12.1,4.27c-0.3,0.11-0.5,0.39-0.5,0.71c0,0.32,0.2,0.6,0.5,0.71l4.79,1.7v4.91c0,0.81,0.85,1.5,2.51,2.04  c1.45,0.47,3.24,0.73,5.04,0.73c1.8,0,3.59-0.26,5.04-0.73c1.67-0.54,2.51-1.23,2.51-2.04v-4.91l1.98-0.7v6.8  c-0.88,0.31-1.51,1.15-1.51,2.14c0,0.98,0.63,1.82,1.51,2.14v2.88c0,0.42,0.34,0.75,0.75,0.75c0.42,0,0.75-0.34,0.75-0.75v-2.88  c0.88-0.31,1.51-1.15,1.51-2.14c0-0.98-0.63-1.82-1.51-2.14v-7.34L67.39,49.19z M65.33,59.89c-0.42,0-0.76-0.34-0.76-0.76  s0.34-0.76,0.76-0.76s0.76,0.34,0.76,0.76S65.75,59.89,65.33,59.89z M55.04,45.01l9.84,3.47l-9.84,3.5l-9.84-3.5L55.04,45.01z   M61.09,55.69c-0.14,0.15-0.66,0.49-1.83,0.83c-1.24,0.35-2.74,0.55-4.22,0.55s-2.98-0.2-4.22-0.55c-1.17-0.33-1.68-0.68-1.83-0.83  v-4.26l5.8,2.06c0.08,0.03,0.17,0.04,0.25,0.04c0.09,0,0.17-0.01,0.25-0.04l5.8-2.06L61.09,55.69L61.09,55.69z"></path></svg>