<svg id="Layer_1" data-name="Layer 1" xmlns="http://www.w3.org/2000/svg" viewBox="0 0 81.66 73.61"><defs><style>.cls-1{fill:#ffffff;}</style></defs><path class="cls-1" d="M93.36,27.9h-.19A27,27,0,0,0,76,34.36c-5.42-4.87-10.66-7.3-15.44-7.3A24.27,24.27,0,0,0,43,34.45a25.23,25.23,0,0,0-6.64,12.91,2.81,2.81,0,1,0,5.52,1,19.57,19.57,0,0,1,5.24-10.1,18.57,18.57,0,0,1,13.48-5.71C64.35,32.58,69,35.1,74,40a3,3,0,0,0,4.21,0,21.8,21.8,0,0,1,15.25-6.55A15.93,15.93,0,0,1,105,38.19,19.76,19.76,0,0,1,110.58,52a20.31,20.31,0,0,1-1.12,6.46H88.31a2.82,2.82,0,0,0-2.06.84l-8.52,9L68,46.33a2.8,2.8,0,0,0-3.69-1.46A2.76,2.76,0,0,0,63,46L55.27,58.69h-18a2.81,2.81,0,0,0,0,5.61H56.86a2.8,2.8,0,0,0,2.34-1.4L65,53.54l9.36,21.15a2.82,2.82,0,0,0,2.06,1.59h.47A2.8,2.8,0,0,0,79,75.44L89.52,64.21h16.85L105,65.89,76,94,53.12,71.79a2.81,2.81,0,1,0-3.93,4l24.89,24a2.81,2.81,0,0,0,3.93,0l31-29.94a25.65,25.65,0,0,0,0-35.56A21.43,21.43,0,0,0,93.36,27.9Z" transform="translate(-34.5 -27.06)"/></svg>