<svg xmlns="http://www.w3.org/2000/svg" xmlns:xlink="http://www.w3.org/1999/xlink" version="1.1" id="Layer_1" x="0px" y="0px" style="enable-background:new 0 0 112 104;" xml:space="preserve" viewBox="34.94 29.16 42.12 42.12"><style type="text/css">	.st0{fill:#FF7D7D;}	.st1{fill:#FFFFFF;}</style><circle class="st0" cx="56" cy="50.22" r="21.06"></circle><g>	<path class="st1" d="M60.89,40.46h-0.05c-1.71,0.02-3.37,0.64-4.67,1.75c-1.47-1.32-2.9-1.98-4.19-1.98   c-1.79-0.01-3.51,0.72-4.75,2.01c-0.93,0.97-1.56,2.18-1.8,3.5c-0.08,0.41,0.2,0.81,0.61,0.89s0.81-0.2,0.89-0.61   c0.19-1.04,0.69-1.99,1.42-2.74c0.96-0.99,2.28-1.55,3.66-1.55c1.02,0,2.29,0.69,3.63,2.01c0.32,0.31,0.83,0.31,1.14,0   c1.09-1.12,2.58-1.75,4.14-1.78c1.17-0.01,2.3,0.46,3.12,1.3c0.98,1,1.53,2.35,1.52,3.76c-0.01,0.6-0.11,1.19-0.3,1.75h-5.74   c-0.21,0-0.41,0.08-0.56,0.23l-2.31,2.44l-2.64-5.97c-0.17-0.39-0.61-0.56-1-0.4c-0.14,0.06-0.26,0.16-0.34,0.3l-2.11,3.45h-4.88   c-0.42,0-0.76,0.34-0.76,0.76c0,0.42,0.34,0.76,0.76,0.76h5.31c0.26-0.01,0.5-0.15,0.63-0.38l1.57-2.54l2.54,5.74   c0.1,0.23,0.31,0.39,0.56,0.43h0.13c0.21,0,0.41-0.08,0.56-0.23l2.87-3.05h4.57l-0.38,0.46l-7.87,7.62l-6.2-6.02   c-0.3-0.29-0.78-0.29-1.08,0.01s-0.29,0.78,0.01,1.08l6.76,6.53c0.3,0.29,0.77,0.29,1.07,0l8.41-8.13c2.59-2.69,2.59-6.96,0-9.65   C64.02,41.07,62.49,40.44,60.89,40.46z"></path></g></svg>