<svg xmlns="http://www.w3.org/2000/svg" xmlns:xlink="http://www.w3.org/1999/xlink" version="1.1" id="Layer_1" x="0px" y="0px" style="enable-background:new 0 0 112 104;" xml:space="preserve" viewBox="34.94 28.66 42.12 42.12"><style type="text/css">	.st0{fill:#EDC343;}	.st1{fill:#252525;}</style><circle class="st0" cx="56" cy="49.72" r="21.06"></circle><g>	<path class="st1" d="M54.95,56.49c-0.14,0.1-0.31,0.15-0.47,0.15c-0.26,0-0.51-0.12-0.67-0.35l-4.54-6.51   c-0.26-0.37-0.17-0.88,0.2-1.14c0.37-0.26,0.88-0.17,1.14,0.2l4.54,6.51C55.41,55.73,55.32,56.23,54.95,56.49z M60.36,56.59   c-0.14,0.1-0.31,0.15-0.47,0.15c-0.26,0-0.51-0.12-0.67-0.35l-8.17-11.71c-0.26-0.37-0.17-0.88,0.2-1.14   c0.37-0.26,0.88-0.17,1.14,0.2l8.17,11.71C60.82,55.82,60.73,56.33,60.36,56.59z M62.14,51.48c-0.14,0.1-0.31,0.15-0.47,0.15   c-0.26,0-0.51-0.12-0.67-0.35l-4.54-6.51c-0.26-0.37-0.17-0.88,0.2-1.14c0.37-0.26,0.88-0.17,1.14,0.2l4.54,6.51   C62.6,50.71,62.51,51.22,62.14,51.48z"></path>	<path class="st1" d="M52.39,43.74c-0.26-0.37-0.77-0.46-1.14-0.2c-0.37,0.26-0.46,0.77-0.2,1.14l8.17,11.71   c0.16,0.23,0.41,0.35,0.67,0.35c0.16,0,0.32-0.05,0.47-0.15c0.37-0.26,0.46-0.77,0.2-1.14L52.39,43.74z"></path>	<path class="st1" d="M57.8,43.84c-0.26-0.37-0.77-0.46-1.14-0.2c-0.37,0.26-0.46,0.77-0.2,1.14L61,51.28   c0.16,0.23,0.41,0.35,0.67,0.35c0.16,0,0.32-0.05,0.47-0.15c0.37-0.26,0.46-0.77,0.2-1.14L57.8,43.84z"></path>	<path class="st1" d="M50.62,48.85c-0.26-0.37-0.77-0.46-1.14-0.2c-0.37,0.26-0.46,0.77-0.2,1.14l4.54,6.51   c0.16,0.23,0.41,0.35,0.67,0.35c0.16,0,0.32-0.05,0.47-0.15c0.37-0.26,0.46-0.77,0.2-1.14L50.62,48.85z"></path>	<path class="st1" d="M67.64,48.58c-0.18,0.03-0.37,0.05-0.56,0.05c-0.39,0-0.76-0.07-1.1-0.19c-1.29-0.46-2.23-1.69-2.23-3.14   c0-0.55,0.13-1.06,0.37-1.51c0.26-0.5,0.64-0.93,1.1-1.25c-0.34-0.43-0.7-0.84-1.09-1.22c-2.11-2.04-4.97-3.3-8.13-3.3   c-6.45,0-11.69,5.25-11.69,11.69S49.55,61.41,56,61.41c6.28,0,11.41-4.97,11.68-11.19c0.01-0.17,0.01-0.34,0.01-0.5   C67.69,49.34,67.67,48.96,67.64,48.58z M56,59.78c-5.55,0-10.06-4.51-10.06-10.06S50.45,39.66,56,39.66c2.71,0,5.18,1.08,6.99,2.84   c-0.55,0.8-0.87,1.76-0.87,2.81c0,2.38,1.69,4.38,3.93,4.85C65.82,55.5,61.4,59.78,56,59.78z"></path></g></svg>