<svg id="Layer_1" data-name="Layer 1" xmlns="http://www.w3.org/2000/svg" viewBox="0 0 79.75 79.75"><defs><style>.cls-1{fill:#000000;}</style></defs><path class="cls-1" d="M71.76,84.1a2.74,2.74,0,0,1-1.58.5,2.77,2.77,0,0,1-2.29-1.19L52.41,61.22A2.79,2.79,0,0,1,57,58l15.48,22.2A2.79,2.79,0,0,1,71.76,84.1Zm18.45.33a2.79,2.79,0,0,1-3.88-.69L58.48,43.79A2.78,2.78,0,1,1,63,40.61l27.86,40A2.78,2.78,0,0,1,90.21,84.43ZM96.27,67a2.78,2.78,0,0,1-3.87-.69L76.92,44.13a2.79,2.79,0,1,1,4.57-3.19L97,63.14A2.78,2.78,0,0,1,96.27,67Z" transform="translate(-35.47 -21.14)"/><path class="cls-1" d="M63,40.61a2.78,2.78,0,1,0-4.56,3.18L86.33,83.74a2.78,2.78,0,0,0,4.57-3.18Z" transform="translate(-35.47 -21.14)"/><path class="cls-1" d="M81.49,40.94a2.79,2.79,0,1,0-4.57,3.19L92.4,66.32A2.78,2.78,0,1,0,97,63.14Z" transform="translate(-35.47 -21.14)"/><path class="cls-1" d="M57,58a2.79,2.79,0,0,0-4.57,3.19L67.89,83.41a2.78,2.78,0,1,0,4.56-3.18Z" transform="translate(-35.47 -21.14)"/><path class="cls-1" d="M115,57.13a11.65,11.65,0,0,1-1.89.17,11.35,11.35,0,0,1-6.35-20.77,39.85,39.85,0,1,0,8.39,26.2c0-.57,0-1.14,0-1.72A38.33,38.33,0,0,0,115,57.13ZM75.34,95.32A34.31,34.31,0,1,1,99.18,36.37a16.92,16.92,0,0,0,10.43,26.12A34.35,34.35,0,0,1,75.34,95.32Z" transform="translate(-35.47 -21.14)"/></svg>