<svg id="Layer_1" data-name="Layer 1" xmlns="http://www.w3.org/2000/svg" viewBox="0 0 80.72 70.48"><defs><style>.cls-1{fill:#ffffff;}</style></defs><path class="cls-1" d="M94.44,65h-11A5.45,5.45,0,0,0,78,70.39V78.8a5.45,5.45,0,0,0,5.45,5.45h11a5.45,5.45,0,0,0,5.45-5.45V70.39A5.45,5.45,0,0,0,94.44,65ZM95.93,78.8a1.49,1.49,0,0,1-1.49,1.49h-11A1.49,1.49,0,0,1,82,78.8V70.39a1.49,1.49,0,0,1,1.49-1.48h11a1.49,1.49,0,0,1,1.49,1.48Z" transform="translate(-37.1 -26.57)"/><path class="cls-1" d="M117.81,49.66a1.83,1.83,0,0,0-.26-1l-12-21.11a2,2,0,0,0-1.71-1H51.07a2,2,0,0,0-1.72,1l-12,21.11a2,2,0,0,0-.26,1A11.59,11.59,0,0,0,44,60.25V95.07a2,2,0,0,0,2,2h62.89a2,2,0,0,0,2-2V60.5a.75.75,0,0,0,0-.22A11.6,11.6,0,0,0,117.81,49.66ZM52.22,30.55h50.45l9.39,16.51H42.85ZM94.54,51a7.6,7.6,0,0,1-15,0ZM75.36,51a7.62,7.62,0,0,1-15,0ZM41.19,51h15a7.62,7.62,0,0,1-15,0ZM70.35,93.09H59V71.73a2.82,2.82,0,0,1,2.82-2.82h5.75a2.82,2.82,0,0,1,2.82,2.82V93.09Zm36.56,0H74.31V71.73A6.79,6.79,0,0,0,67.53,65H61.77A6.79,6.79,0,0,0,55,71.73V93.1H48V61.22c.23,0,.46,0,.69,0a11.55,11.55,0,0,0,9.6-5.11,11.57,11.57,0,0,0,19.2,0,11.54,11.54,0,0,0,19.17,0,11.55,11.55,0,0,0,9.6,5.11l.67,0V93.09Zm-.67-35.81A7.59,7.59,0,0,1,98.75,51h15A7.64,7.64,0,0,1,106.24,57.28Z" transform="translate(-37.1 -26.57)"/></svg>