<svg xmlns="http://www.w3.org/2000/svg" xmlns:xlink="http://www.w3.org/1999/xlink" version="1.1" id="Layer_1" x="0px" y="0px" style="enable-background:new 0 0 112 104;" xml:space="preserve" viewBox="36.2 29.23 42.12 42.12"><style type="text/css">	.st0{fill:#0E325E;}	.st1{fill:#FFFFFF;}</style><circle class="st0" cx="57.26" cy="50.29" r="21.06"></circle><g>	<g>		<path class="st1" d="M61.8,51.13h-2.93c-0.8,0-1.45,0.65-1.45,1.45v2.25c0,0.8,0.65,1.45,1.45,1.45h2.93    c0.8,0,1.45-0.65,1.45-1.45v-2.25C63.25,51.78,62.6,51.13,61.8,51.13z M62.2,54.83c0,0.22-0.18,0.4-0.4,0.4h-2.93    c-0.22,0-0.4-0.18-0.4-0.4v-2.25c0-0.22,0.18-0.4,0.4-0.4h2.93c0.22,0,0.4,0.18,0.4,0.4V54.83z"></path>		<path class="st1" d="M68.04,47.04c0-0.09-0.02-0.18-0.07-0.26l-3.21-5.64c-0.09-0.16-0.27-0.27-0.46-0.27H50.22    c-0.19,0-0.37,0.1-0.46,0.27l-3.2,5.64c-0.04,0.08-0.07,0.17-0.07,0.26c0,1.26,0.76,2.35,1.85,2.83v9.3    c0,0.29,0.24,0.53,0.53,0.53h2.92c0,0,0.01,0,0.01,0h4.1c0,0,0.01,0,0.01,0h9.75c0.29,0,0.53-0.24,0.53-0.53v-9.23    c0-0.02,0-0.04,0-0.06C67.27,49.4,68.04,48.31,68.04,47.04z M50.53,41.94H64l2.51,4.41H48.03L50.53,41.94z M61.83,47.4    c-0.17,0.95-1,1.67-2,1.67c-1,0-1.83-0.72-2-1.67H61.83z M56.71,47.4c-0.17,0.95-1,1.67-2,1.67s-1.83-0.72-2-1.67H56.71z     M47.58,47.4h4c-0.17,0.95-1,1.67-2,1.67C48.58,49.08,47.75,48.35,47.58,47.4z M55.37,58.64h-3.04v-5.7    c0-0.41,0.33-0.75,0.75-0.75h1.54c0.41,0,0.75,0.33,0.75,0.75L55.37,58.64L55.37,58.64z M65.13,58.64h-8.71v-5.7    c0-1-0.81-1.81-1.81-1.81h-1.54c-1,0-1.81,0.81-1.81,1.81v5.71H49.4v-8.51c0.06,0,0.12,0,0.18,0c1.07,0,2.01-0.54,2.56-1.37    c0.55,0.82,1.5,1.37,2.56,1.37s2-0.54,2.56-1.37c0.55,0.82,1.5,1.37,2.56,1.37c1.07,0,2-0.54,2.56-1.37    c0.55,0.82,1.5,1.37,2.56,1.37c0.06,0,0.12,0,0.18,0L65.13,58.64L65.13,58.64z M64.95,49.08c-1,0-1.83-0.72-2-1.67h4    C66.78,48.35,65.95,49.08,64.95,49.08z"></path>	</g></g></svg>