<?xml version="1.0" encoding="utf-8"?>
<!-- Generator: Adobe Illustrator 22.0.0, SVG Export Plug-In . SVG Version: 6.00 Build 0)  -->
<svg version="1.1" id="Capa_1" xmlns="http://www.w3.org/2000/svg" xmlns:xlink="http://www.w3.org/1999/xlink" x="0px" y="0px"
	 viewBox="0 0 200 200" style="enable-background:new 0 0 200 200;" xml:space="preserve">
<style type="text/css">
	.st0{fill:#EA8737;}
	.st1{fill:#FFFFFF;}
</style>
<circle class="st0" cx="100" cy="100" r="67.7"/>
<g>
	<g transform="translate(793.75 245.3125) rotate(0.0 78.90625 121.09375)  scale(1.5657244622589095 1.5495735573570153)">
		<path class="st1" d="M-459.3-107.4l-0.8,0l-0.8-0.2l-0.8-0.1l-0.8-0.1l-0.8-0.1l-0.8-0.1l-0.8-0.1l-0.8-0.1l-0.8,0.1l-0.8-0.2
			l-0.5-0.4l-0.4-0.5l-0.1-0.7l0.3-0.8v-0.8l0.3-0.7l0.1-0.8l0.3-0.8l0.4-0.7l0.3-0.7l0.1-0.8l0.5-0.6l0.2-0.8l0.4-0.7l0.5-0.6
			l0.6-0.5l0.5-0.6l0.5-0.6l0.5-0.6l0.7-0.4l0.7-0.5l0.6-0.5l0.7-0.4l0.7-0.4l0.8-0.2l0.8-0.2l0.8-0.2l0.8-0.2l0.8-0.1l0.8-0.1
			l0.8,0.1l0.8-0.1l0.8,0l0.8,0l0.8,0.1l0.8,0.1l0.7,0.3h0.8l0.7,0.4l0.7,0.3l0.8,0.2l0.6,0.5l0.7,0.3l0.5,0.6l0.6,0.4l0.6,0.5
			l0.6,0.5l0.5,0.7l0.6,0.5l0.5,0.6l0.4,0.7l0.3,0.8l0.4,0.7l0.3,0.8l0.2,0.8l0.3,0.7l0.1,0.8l0.2,0.8l0.2,0.8l0,0.8l0,0.8l0.1,0.8
			l0,0.8l-0.3,0.8l0,0.8l-0.3,0.8l-0.2,0.8l-0.2,0.8l-0.5,0.7l-0.3,0.8l-0.5,0.7l-0.5,0.7l-0.5,0.6l-0.6,0.5l-0.4,0.7l-0.7,0.4
			l-0.5,0.6l-0.5,0.6l-0.6,0.4l-0.6,0.4l-0.5,0.5l-0.5,0.5l-0.5,0.5l-0.4,0.6l-0.4,0.8l-0.3,0.8l-0.3,0.5l-0.5,0.4l-0.8-0.2
			l-0.8,0.1l-0.8-0.1l-0.8,0.1l-0.8-0.1l-0.8,0.2l-0.8,0l-0.8-0.1l-0.8,0.1l-0.8-0.1l-0.7-0.2l-0.2-0.7l0-0.8l0.2-0.8l0.2-0.8
			l0.1-0.8l-0.1-0.8l0.2-0.8l0.3-0.7l0.5-0.6l0.4-0.7l0.4-0.7l0.6-0.5l0.6-0.5l0.5-0.7l0.5-0.6l0.6-0.6l0.5-0.7l0.6-0.6l0.3-0.8
			l0.5-0.7l0.3-0.6l0.3-0.7l0.2-0.7l-0.1-0.7l0-0.7l0.2-0.9l-0.3-0.8l-0.3-0.8l-0.5-0.7l-0.6-0.6l-0.7-0.5l-0.9,0l-0.8-0.1l-0.7,0.2
			l-0.6,0.5l-0.5,0.6l-0.6,0.5l-0.2,0.8l-0.3,0.7l-0.1,0.8l-0.4,0.7l0.1,0.8l-0.1,0.8l-0.3,0.9L-459.3-107.4z M-448.4-85.8l0.1,0.8
			l-0.1,0.8l0,0.8l0,0.8l0,0.8l0,0.8l0,0.8l-0.2,0.7l-0.3,0.7l-0.7,0.3l-0.7,0.1l-0.8,0.1l-0.8,0.1l-0.8-0.1l-0.8,0.2l-0.8-0.1
			l-0.8,0.1l-0.8,0l-0.8-0.2l-0.7-0.1l-0.7-0.2l-0.2-0.7l-0.4-0.7l0-0.8l0.1-0.8l0.1-0.8l0-0.8l-0.1-0.8l-0.1-0.8l0.2-0.8l0.1-0.7
			l0.3-0.7l0.6-0.4l0.7-0.2l0.8,0.1l0.8,0l0.8,0l0.8,0l0.8,0l0.8-0.1l0.8,0.1l0.8-0.1l0.7,0.2l0.6,0.3l0.4,0.6L-448.4-85.8z"/>
	</g>
	
		<g transform="translate(2260.9375 131.25) rotate(10.449368782760075 35.15625 117.96875)  scale(3.332345971563981 3.2543103448275863)">
		<g>
			<path class="st1" d="M-640.5,107.8c0,0.2,0.1,0.2,0.1,0.4c0,0.2,0,0.2,0,0.4c0,0.2,0,0.2,0,0.4s0,0.2,0,0.4v0.4
				c0,0.2-0.1,0.2,0,0.4c0,0.2,0,0.2,0,0.4v0.4c0,0,0.1,0.2,0.1,0.4c0,0.2-0.1,0.2-0.1,0.4c0,0.2,0.1,0.2,0.1,0.4
				c0,0.2-0.1,0.2-0.1,0.4c0,0.2,0,0.2,0.1,0.4c0,0.2,0,0.2,0,0.4c0,0.2,0.1,0.2,0.1,0.4c0,0.2-0.1,0.2,0,0.4c0,0.2,0.1,0.2,0.1,0.4
				c0,0.2,0,0.2,0,0.4c0,0.2,0.1,0.2,0.1,0.4v0.4c0,0.2,0,0.2,0,0.4v0.4v0.4c0,0.1,0.1,0.2,0.1,0.4c0,0.1,0.1,0.2,0.1,0.4
				c0.1,0.1,0.1,0.2,0.1,0.4s0.1,0.2,0.2,0.3s0.2,0.1,0.3,0.2c0.1,0.1,0.2,0.1,0.4,0.1c0.1,0.1,0.2,0.1,0.3,0.2s0.2,0.1,0.4,0.1
				c0.2,0,0.2,0,0.4,0s0.2-0.1,0.4-0.1c0.2,0,0.2,0,0.4,0h0.4c0.1,0,0.3,0,0.4-0.1s0.2-0.1,0.4-0.1c0.1-0.1,0.2-0.2,0.3-0.3
				c0.1-0.1,0.2-0.1,0.3-0.2c0.1-0.1,0.1-0.2,0.2-0.3c0.1-0.1,0-0.3,0-0.4c0-0.1,0.1-0.2,0.1-0.4c0-0.2-0.1-0.2,0-0.4
				c0-0.2,0-0.2,0-0.4c0-0.2,0.1-0.2,0.1-0.4c0-0.2,0.1-0.2,0.1-0.4c0-0.2-0.1-0.2-0.1-0.4s0-0.2,0-0.4c0-0.2,0.1-0.2,0.1-0.4
				c0-0.2,0-0.2,0-0.4c0-0.2,0.1-0.2,0.1-0.4c0-0.2,0-0.2,0-0.4c0-0.2-0.1-0.2-0.1-0.4c0-0.2,0-0.2,0-0.4c0-0.2,0.1-0.2,0.1-0.4
				c0-0.2,0-0.2,0.1-0.4c0-0.2-0.1-0.2-0.1-0.4c0-0.2,0.1-0.2,0.1-0.4c0-0.2,0-0.2,0-0.4s-0.1-0.2,0-0.4c0-0.2,0.1-0.2,0.1-0.4
				c0-0.2,0-0.2,0-0.4c0-0.2,0-0.2,0-0.4c0-0.2,0-0.2,0-0.4c0-0.2,0-0.2,0-0.4c0-0.2,0.1-0.2,0.1-0.4c0,0-0.1-0.1-0.1-0.1
				c0-0.1,0-0.2,0-0.3c0-0.1,0-0.2-0.1-0.3c-0.1-0.2-0.1-0.3-0.2-0.4c-0.1-0.1-0.2-0.1-0.3-0.2c-0.1-0.1-0.1-0.2-0.2-0.3
				c-0.1-0.1-0.2-0.1-0.3-0.2c-0.1-0.1-0.2-0.1-0.3-0.1c-0.1-0.1-0.2-0.1-0.3-0.1c-0.1,0-0.2,0-0.3,0c-0.2,0-0.2,0-0.4,0
				c-0.2,0-0.1-0.1-0.3-0.1c-0.2,0-0.2,0-0.4,0c-0.2,0-0.2,0-0.4,0c-0.2,0-0.2,0.1-0.4,0.1c0,0-0.1,0-0.1,0c-0.1,0-0.2,0-0.3,0
				c-0.1,0-0.2,0-0.3,0.1c-0.1,0-0.2,0.1-0.3,0.1c-0.1,0-0.2,0.1-0.3,0.2c-0.1,0.1-0.2,0.1-0.3,0.2c-0.1,0.1-0.1,0.2-0.2,0.3
				c-0.1,0.1,0,0.2-0.1,0.3s-0.1,0.2-0.1,0.3c0,0.1,0,0.2,0,0.3C-640.4,107.6-640.5,107.6-640.5,107.8z"/>
			<path class="st1" d="M-634.6,123.6c0-0.1,0-0.2-0.1-0.3c0-0.1,0-0.2,0-0.4c0-0.1-0.1-0.2-0.1-0.3c0-0.1-0.1-0.2-0.1-0.3
				c-0.1-0.1-0.1-0.2-0.1-0.3c-0.1-0.1-0.1-0.2-0.2-0.3c-0.1-0.1-0.1-0.1-0.2-0.2s-0.1-0.2-0.2-0.3c-0.1-0.1-0.2-0.1-0.3-0.2
				c-0.1-0.1-0.2-0.1-0.3-0.1c-0.1-0.1-0.2-0.1-0.3-0.1s-0.2-0.1-0.3-0.1c-0.1,0-0.2-0.1-0.3-0.1c-0.1,0-0.2,0-0.4,0s-0.2,0-0.4,0
				c-0.1,0-0.2,0.1-0.3,0.1c-0.1,0-0.2,0-0.4,0.1s-0.2,0.1-0.3,0.2s-0.2,0.1-0.3,0.2c-0.1,0.1-0.2,0.1-0.3,0.1
				c-0.1,0.1-0.1,0.2-0.2,0.3c-0.1,0.1-0.2,0.1-0.3,0.2c-0.1,0.1-0.1,0.2-0.1,0.3c-0.1,0.1-0.1,0.2-0.1,0.3
				c-0.1,0.1-0.1,0.2-0.2,0.3c0,0.1-0.1,0.2-0.1,0.3c0,0.1-0.1,0.2-0.1,0.3c0,0.1-0.1,0.2-0.1,0.3c0,0.1,0,0.2,0.1,0.4
				c0,0.1,0,0.2,0.1,0.4c0,0.1,0.1,0.2,0.1,0.3c0.1,0.1,0,0.3,0.1,0.4c0.1,0.1,0.2,0.1,0.2,0.3c0.1,0.1,0.1,0.3,0.1,0.4
				s0.2,0.1,0.3,0.2c0.1,0.1,0.1,0.1,0.2,0.2c0.1,0.1,0.2,0.1,0.3,0.1c0.1,0.1,0.2,0.1,0.3,0.2s0.2,0.1,0.4,0.1
				c0.1,0,0.2,0.1,0.3,0.1s0.2,0,0.4,0s0.2,0,0.4,0h0.4c0.1,0,0.2,0,0.4-0.1l0.4-0.1c0,0,0.2-0.1,0.3-0.2c0.1-0.1,0.2-0.1,0.3-0.2
				c0.1-0.1,0.2-0.1,0.3-0.1c0.1-0.1,0.2-0.1,0.3-0.2c0.1-0.1,0.1-0.2,0.2-0.3c0.1-0.1,0.1-0.2,0.1-0.3c0.1-0.1,0.1-0.2,0.2-0.3
				c0.1-0.1,0.1-0.2,0.1-0.3c0.1-0.1,0.1-0.2,0.1-0.3s-0.1-0.2,0-0.4C-634.6,123.8-634.6,123.7-634.6,123.6L-634.6,123.6z"/>
		</g>
	</g>
</g>
</svg>
