<svg xmlns="http://www.w3.org/2000/svg" xmlns:xlink="http://www.w3.org/1999/xlink" version="1.1" id="Capa_1" x="0px" y="0px" style="enable-background:new 0 0 122.4 59.8;" xml:space="preserve" viewBox="24.5 18.7 69.9 22.3">
<style type="text/css">
	.st0{fill:#EC913C;}
</style>
<g>
	<rect id="A2_COLA_1_" x="92.3" y="28.6" class="st0" width="2.1" height="5.9"/>
	<path id="A2_CIRCULO_1_" class="st0" d="M88.8,25.3c1.9,0,3.5,1.6,3.5,3.5c0,1.9-1.6,3.5-3.5,3.5c-1.9,0-3.5-1.6-3.5-3.5   C85.3,26.9,86.8,25.3,88.8,25.3 M88.8,23.2c-3.1,0-5.6,2.5-5.6,5.6c0,3.1,2.5,5.6,5.6,5.6c3.1,0,5.6-2.5,5.6-5.6   C94.4,25.7,91.9,23.2,88.8,23.2L88.8,23.2z"/>
	<path id="R_1_" class="st0" d="M82.3,23.2c-0.3,0-2.1-0.2-3.6,1.3c-1.2,1.2-1.2,2.7-1.3,3c0,2.3,0,4.6,0,7h2.1v-6.8   c0-0.1,0-1.2,0.9-1.9c0.8-0.6,1.7-0.5,1.8-0.4L82.3,23.2z"/>
	<path id="E_1_" class="st0" d="M70,23.2c-0.6,0-1.2,0.1-1.8,0.3c-3.4,1.1-4.8,5.2-3,8.2c1,1.8,2.9,2.8,4.8,2.8c0.7,0,1.3-0.1,2-0.4   c1.3-0.5,2.2-1.3,2.9-2.4c0.2-0.3,0.1-0.4-0.2-0.4c-0.5,0-0.9,0-1.4,0c-0.2,0-0.3,0-0.5,0c-0.1,0-0.3,0-0.4,0.1   c-0.7,0.7-1.6,0.9-2.5,0.9c-0.2,0-0.4,0-0.7,0c-1.2-0.2-2.3-1.2-2.5-2.3c-0.1-0.4,0-0.4,0.3-0.4c0.7,0,1.3,0,2,0c0.4,0,0.9,0,1.3,0   c0.2,0,0.5,0,0.7,0c0.7,0,1.4,0,2.2,0c0.6,0,1.3,0,1.9,0c0,0,0,0,0,0c0.2,0,0.3,0,0.3-0.2c0.1-1.1,0-2.1-0.5-3.1   C74,24.3,72,23.2,70,23.2L70,23.2z M68.3,27.9c-0.4,0-0.8,0-1.3,0c-0.4,0-0.4-0.1-0.3-0.4c0.5-1.4,1.7-2.2,3.2-2.2c0,0,0,0,0,0   c1.4,0,2.7,0.9,3.2,2.3c0.1,0.3,0.1,0.4-0.2,0.4c-0.4,0-0.9,0-1.3,0c-0.5,0-1.1,0-1.6,0C69.4,27.9,68.9,27.9,68.3,27.9L68.3,27.9z"/>
	<path id="E_INICIO_1_" class="st0" d="M67.1,29.6c0.7,0,1.3,0,2,0c0.4,0,0.9,0,1.3,0c0.2,0,0.5,0,0.7,0c0.3,0,0.7,0,1,0v-1.7   c-0.2,0-0.3,0-0.5,0c-0.5,0-1.1,0-1.6,0c-0.6,0-1.1,0-1.7,0c-0.4,0-0.7,0-1.1,0h-2.8c-0.1,0.6-0.1,1.1,0,1.7L67.1,29.6   C67,29.6,67,29.6,67.1,29.6z"/>
	<path class="st0" d="M63.9,34.4l-5-7c1.5-1.4,2.9-2.8,4.4-4.2h-2.7c-1.8,1.7-3.5,3.4-5.3,5.1v-9.6H53v15.7h2.2v-3.8   c0,0.1,0,0.3,0,0.4c0.8-0.7,1.5-1.5,2.3-2.2c1.4,1.9,2.7,3.8,4.1,5.6C62.4,34.4,63.1,34.4,63.9,34.4z"/>
	<rect id="A1_COLA_1_" x="49.1" y="28.6" class="st0" width="2.1" height="5.9"/>
	<path id="A1_CIRCULO_1_" class="st0" d="M45.5,25.4c1.9,0,3.5,1.6,3.5,3.5c0,1.9-1.6,3.5-3.5,3.5c-1.9,0-3.5-1.6-3.5-3.5   C42,26.9,43.6,25.4,45.5,25.4 M45.5,23.2c-3.1,0-5.6,2.5-5.6,5.6s2.5,5.6,5.6,5.6c3.1,0,5.6-2.5,5.6-5.6S48.6,23.2,45.5,23.2   L45.5,23.2z"/>
	<path class="st0" d="M35.9,23.3v5.8c-0.1,1.8-1.6,3.2-3.5,3.2c-1.8,0-3.4-1.4-3.5-3.3v-2.9h-2.2v-2.9h-2.2v2.9h2.2v2.9h0   c0.1,3,2.6,5.4,5.6,5.4c1.3,0,2.5-0.4,3.5-1.2v2.2c0,1.9-1.6,3.5-3.5,3.5c-1.9,0-3.5-1.6-3.5-3.5h-2.2c0,3.1,2.5,5.6,5.6,5.6   c3.1,0,5.6-2.5,5.6-5.6v-6.4v0v-5.8H35.9z"/>
</g>
</svg>